<svg width="55" height="77" viewBox="0 0 55 77" fill="none" xmlns="http://www.w3.org/2000/svg">
<circle cx="27.5" cy="27.5" r="27.5" fill="#FF5C0A"/>
<path d="M28.2353 77L2.5 37H52.5L28.2353 77Z" fill="#FF5C0A"/>
<circle cx="28" cy="27" r="20" fill="#447604"/>
<path d="M28.2362 77L12.795 37H42.795L28.2362 77Z" fill="#447604"/>
<circle cx="28" cy="27" r="10" fill="#6CC551"/>
<path d="M27.8774 27.9908L28.9899 26.8785L34 31.89L32.8898 33L27.8774 27.9908ZM31.2172 23.5338L33.4422 21.3092C30.3693 18.2368 25.3903 18.229 22.3174 21.2936C25.3747 20.2825 28.7822 21.0992 31.2172 23.5338ZM22.294 21.317C19.2289 24.3894 19.2366 29.3675 22.3096 32.44L24.5345 30.2154C22.0995 27.7808 21.2827 24.3739 22.294 21.317ZM22.3096 21.3014L22.3018 21.3092C22.0062 23.6505 23.212 26.6607 25.647 29.1031L30.1047 24.6461C27.6697 22.2115 24.6512 21.0058 22.3096 21.3014Z" fill="black"/>
</svg>
