<svg width="55" height="77" viewBox="0 0 55 77" fill="none" xmlns="http://www.w3.org/2000/svg">
<circle cx="27.5" cy="27.5" r="27.5" fill="#6CC551"/>
<path d="M28.2353 77L2.5 37H52.5L28.2353 77Z" fill="#6CC551"/>
<circle cx="28" cy="27" r="20" fill="#FF5C0A"/>
<path d="M28.2362 77L12.795 37H42.795L28.2362 77Z" fill="#FF5C0A"/>
<circle cx="28" cy="27" r="10" fill="#6CC551"/>
<path d="M28 34L26.985 33.0649C23.38 29.7564 21 27.5744 21 24.8965C21 22.7144 22.694 21 24.85 21C26.068 21 27.237 21.5738 28 22.4807C28.763 21.5738 29.932 21 31.15 21C33.306 21 35 22.7144 35 24.8965C35 27.5744 32.62 29.7564 29.015 33.0719L28 34Z" fill="black"/>
</svg>
