<svg width="55" height="77" viewBox="0 0 55 77" fill="none" xmlns="http://www.w3.org/2000/svg">
<circle cx="27.5" cy="27.5" r="27.5" fill="#FF5C0A"/>
<path d="M28.2353 77L2.5 37H52.5L28.2353 77Z" fill="#FF5C0A"/>
<circle cx="28" cy="27" r="20" fill="#447604"/>
<path d="M28.2362 77L12.795 37H42.795L28.2362 77Z" fill="#447604"/>
<circle cx="28" cy="27" r="10" fill="#6CC551"/>
<g clip-path="url(#clip0)">
<path d="M28.25 21.125C29.1667 21.125 29.9167 20.3375 29.9167 19.375C29.9167 18.4125 29.1667 17.625 28.25 17.625C27.3333 17.625 26.5833 18.4125 26.5833 19.375C26.5833 20.3375 27.3333 21.125 28.25 21.125ZM25.1667 24.1L22.8333 36.4375H24.5833L26.0833 29.4375L27.8333 31.1875V36.4375H29.5V29.875L27.75 28.125L28.25 25.5C29.3333 26.8125 31 27.6875 32.8333 27.6875V25.9375C31.25 25.9375 29.9167 25.0625 29.25 23.8375L28.4167 22.4375C28.0833 21.9125 27.5833 21.5625 27 21.5625C26.75 21.5625 26.5833 21.65 26.3333 21.65L22 23.575V27.6875H23.6667V24.7125L25.1667 24.1Z" fill="black"/>
<rect width="0.834059" height="13.1146" transform="matrix(0.990606 0.136748 -0.124241 0.992252 31.9849 22.874)" fill="black"/>
</g>
<defs>
<clipPath id="clip0">
<rect width="20" height="21" fill="white" transform="translate(17 15)"/>
</clipPath>
</defs>
</svg>
