<svg width="55" height="77" viewBox="0 0 55 77" fill="none" xmlns="http://www.w3.org/2000/svg">
<circle cx="27.5" cy="27.5" r="27.5" fill="#FF5C0A"/>
<path d="M28.2353 77L2.5 37H52.5L28.2353 77Z" fill="#FF5C0A"/>
<circle cx="28" cy="27" r="20" fill="#447604"/>
<path d="M28.2362 77L12.795 37H42.795L28.2362 77Z" fill="#447604"/>
<circle cx="28" cy="27" r="10" fill="#6CC551"/>
<path d="M35 25.75V24.25L28 19L21 24.25V25.75H22.4V32.5H21V34H35V32.5H33.6V25.75H35ZM30.8 31H29.4V28L28 30.25L26.6 28V31H25.2V25.75H26.6L28 28L29.4 25.75H30.8V31Z" fill="black"/>
</svg>
