<svg width="55" height="77" viewBox="0 0 55 77" fill="none" xmlns="http://www.w3.org/2000/svg">
<circle cx="27.5" cy="27.5" r="27.5" fill="#FF5C0A"/>
<path d="M28.2353 77L2.5 37H52.5L28.2353 77Z" fill="#FF5C0A"/>
<circle cx="28" cy="27" r="20" fill="#447604"/>
<path d="M28.2362 77L12.795 37H42.795L28.2362 77Z" fill="#447604"/>
<circle cx="28" cy="27" r="10" fill="#6CC551"/>
<path d="M35 23.942C35 21.2098 32.8275 19 30.1413 19C27.4551 19 25.2826 21.2098 25.2826 23.942C25.2826 26.3918 27.0317 28.4181 29.3292 28.8064V31.588H23.7764V29.47H24.4705V26.646C24.4705 26.2577 24.1582 25.94 23.7764 25.94H21.6941C21.3123 25.94 21 26.2577 21 26.646V29.47H21.6941V33H32.7997V31.588H30.7174V28.8487C33.1259 28.5593 35 26.4766 35 23.942ZM22.7353 25.234C23.3114 25.234 23.7764 24.761 23.7764 24.175C23.7764 23.589 23.3114 23.116 22.7353 23.116C22.1591 23.116 21.6941 23.589 21.6941 24.175C21.6941 24.761 22.1591 25.234 22.7353 25.234Z" fill="black"/>
</svg>
