<svg width="55" height="77" viewBox="0 0 55 77" fill="none" xmlns="http://www.w3.org/2000/svg">
<circle cx="27.5" cy="27.5" r="27.5" fill="#FF5C0A"/>
<path d="M28.2353 77L2.5 37H52.5L28.2353 77Z" fill="#FF5C0A"/>
<circle cx="28" cy="27" r="20" fill="#447604"/>
<path d="M28.2362 77L12.795 37H42.795L28.2362 77Z" fill="#447604"/>
<circle cx="28" cy="27" r="10" fill="#6CC551"/>
<path d="M32.6667 23.0952H31.3333C31.3333 21.3867 29.84 20 28 20C26.16 20 24.6667 21.3867 24.6667 23.0952H23.3333C22.6 23.0952 22.0067 23.6524 22.0067 24.3333L22 31.7619C22 32.4429 22.6 33 23.3333 33H32.6667C33.4 33 34 32.4429 34 31.7619V24.3333C34 23.6524 33.4 23.0952 32.6667 23.0952ZM28 21.2381C29.1067 21.2381 30 22.0676 30 23.0952H26C26 22.0676 26.8933 21.2381 28 21.2381ZM28 27.4286C26.16 27.4286 24.6667 26.0419 24.6667 24.3333H26C26 25.361 26.8933 26.1905 28 26.1905C29.1067 26.1905 30 25.361 30 24.3333H31.3333C31.3333 26.0419 29.84 27.4286 28 27.4286Z" fill="black"/>
</svg>
