<svg width="55" height="77" viewBox="0 0 55 77" fill="none" xmlns="http://www.w3.org/2000/svg">
<circle cx="27.5" cy="27.5" r="27.5" fill="#FF5C0A"/>
<path d="M28.2353 77L2.5 37H52.5L28.2353 77Z" fill="#FF5C0A"/>
<circle cx="28" cy="27" r="20" fill="#447604"/>
<path d="M28.2362 77L12.795 37H42.795L28.2362 77Z" fill="#447604"/>
<circle cx="28" cy="27" r="10" fill="#6CC551"/>
<path d="M28 29.4C29.3255 29.4 30.4 28.3255 30.4 27C30.4 25.6745 29.3255 24.6 28 24.6C26.6745 24.6 25.6 25.6745 25.6 27C25.6 28.3255 26.6745 29.4 28 29.4Z" fill="black"/>
<path d="M25.75 19.5L24.3775 21H22C21.175 21 20.5 21.675 20.5 22.5V31.5C20.5 32.325 21.175 33 22 33H34C34.825 33 35.5 32.325 35.5 31.5V22.5C35.5 21.675 34.825 21 34 21H31.6225L30.25 19.5H25.75ZM28 30.75C25.93 30.75 24.25 29.07 24.25 27C24.25 24.93 25.93 23.25 28 23.25C30.07 23.25 31.75 24.93 31.75 27C31.75 29.07 30.07 30.75 28 30.75Z" fill="black"/>
</svg>
