<svg width="55" height="77" viewBox="0 0 55 77" fill="none" xmlns="http://www.w3.org/2000/svg">
<circle cx="27.5" cy="27.5" r="27.5" fill="#FF5C0A"/>
<path d="M28.2353 77L2.5 37H52.5L28.2353 77Z" fill="#FF5C0A"/>
<circle cx="28" cy="27" r="20" fill="#447604"/>
<path d="M28.2362 77L12.795 37H42.795L28.2362 77Z" fill="#447604"/>
<circle cx="28" cy="27" r="10" fill="#6CC551"/>
<path d="M22.5625 27.125C23.4254 27.125 24.125 26.4254 24.125 25.5625C24.125 24.6996 23.4254 24 22.5625 24C21.6996 24 21 24.6996 21 25.5625C21 26.4254 21.6996 27.125 22.5625 27.125Z" fill="black"/>
<path d="M25.5625 24.125C26.4254 24.125 27.125 23.4254 27.125 22.5625C27.125 21.6996 26.4254 21 25.5625 21C24.6996 21 24 21.6996 24 22.5625C24 23.4254 24.6996 24.125 25.5625 24.125Z" fill="black"/>
<path d="M29.5625 24.125C30.4254 24.125 31.125 23.4254 31.125 22.5625C31.125 21.6996 30.4254 21 29.5625 21C28.6996 21 28 21.6996 28 22.5625C28 23.4254 28.6996 24.125 29.5625 24.125Z" fill="black"/>
<path d="M32.5625 26.125C33.4254 26.125 34.125 25.4254 34.125 24.5625C34.125 23.6996 33.4254 23 32.5625 23C31.6996 23 31 23.6996 31 24.5625C31 25.4254 31.6996 26.125 32.5625 26.125Z" fill="black"/>
<path d="M31.3416 28.725C30.7978 28.0875 30.3416 27.5437 29.7916 26.9062C29.5041 26.5687 29.1353 26.2313 28.6978 26.0813C28.6291 26.0563 28.5603 26.0375 28.4916 26.025C28.3353 26 28.1666 26 28.0041 26C27.8416 26 27.6728 26 27.5103 26.0313C27.4416 26.0438 27.3728 26.0625 27.3041 26.0875C26.8666 26.2375 26.5041 26.575 26.2103 26.9125C25.6666 27.55 25.2103 28.0937 24.6603 28.7312C23.8416 29.55 22.8353 30.4562 23.0228 31.725C23.2041 32.3625 23.6603 32.9937 24.4791 33.175C24.9353 33.2687 26.3916 32.9 27.9416 32.9H28.0541C29.6041 32.9 31.0603 33.2625 31.5166 33.175C32.3353 32.9937 32.7916 32.3562 32.9728 31.725C33.1666 30.45 32.1603 29.5437 31.3416 28.725Z" fill="black"/>
</svg>
