<?xml version="1.0" encoding="utf-8"?>
<svg viewBox="0 0 16 16" width="16" height="16" xmlns="http://www.w3.org/2000/svg">
  <path fill-rule="evenodd" d="M 7.889 1.245 C 8.345 1.245 8.715 1.611 8.715 2.062 L 8.715 6.961 L 13.67 6.961 C 14.306 6.961 14.703 7.642 14.385 8.186 C 14.238 8.438 13.966 8.595 13.67 8.595 L 8.715 8.595 L 8.715 13.495 C 8.715 14.123 8.027 14.516 7.475 14.202 C 7.221 14.056 7.063 13.787 7.063 13.495 L 7.063 8.595 L 2.108 8.595 C 1.473 8.595 1.074 7.914 1.393 7.37 C 1.54 7.117 1.813 6.961 2.108 6.961 L 7.063 6.961 L 7.063 2.062 C 7.063 1.611 7.433 1.245 7.889 1.245 Z" style="fill: rgb(4, 150, 136);"/>
</svg>