<svg width="40" height="70" viewBox="0 0 40 70" fill="none" xmlns="http://www.w3.org/2000/svg">
<circle cx="20" cy="20" r="20" fill="#447604"/>
<path d="M20.4412 70L5 30H35L20.4412 70Z" fill="#447604"/>
<circle cx="20" cy="20" r="10" fill="#6CC551"/>
<path d="M20.8774 21.9908L21.9899 20.8785L27 25.89L25.8898 27L20.8774 21.9908ZM24.2172 17.5338L26.4422 15.3092C23.3693 12.2368 18.3903 12.229 15.3174 15.2936C18.3747 14.2825 21.7822 15.0992 24.2172 17.5338ZM15.294 15.317C12.2289 18.3894 12.2366 23.3675 15.3096 26.44L17.5345 24.2154C15.0995 21.7808 14.2827 18.3739 15.294 15.317ZM15.3096 15.3014L15.3018 15.3092C15.0062 17.6505 16.212 20.6607 18.647 23.1031L23.1047 18.6461C20.6697 16.2115 17.6512 15.0058 15.3096 15.3014Z" fill="black"/>
</svg>