<svg width="40" height="70" viewBox="0 0 40 70" fill="none" xmlns="http://www.w3.org/2000/svg">
<circle cx="20" cy="20" r="20" fill="#447604"/>
<path d="M20.4412 70L5 30H35L20.4412 70Z" fill="#447604"/>
<circle cx="20" cy="20" r="10" fill="#6CC551"/>
<g clip-path="url(#clip0)">
<path d="M21.25 14.125C22.1667 14.125 22.9167 13.3375 22.9167 12.375C22.9167 11.4125 22.1667 10.625 21.25 10.625C20.3333 10.625 19.5833 11.4125 19.5833 12.375C19.5833 13.3375 20.3333 14.125 21.25 14.125ZM18.1667 17.1L15.8333 29.4375H17.5833L19.0833 22.4375L20.8333 24.1875V29.4375H22.5V22.875L20.75 21.125L21.25 18.5C22.3333 19.8125 24 20.6875 25.8333 20.6875V18.9375C24.25 18.9375 22.9167 18.0625 22.25 16.8375L21.4167 15.4375C21.0833 14.9125 20.5833 14.5625 20 14.5625C19.75 14.5625 19.5833 14.65 19.3333 14.65L15 16.575V20.6875H16.6667V17.7125L18.1667 17.1Z" fill="black"/>
<rect width="0.834059" height="13.1146" transform="matrix(0.990606 0.136748 -0.124241 0.992252 24.9849 15.874)" fill="black"/>
</g>
<defs>
<clipPath id="clip0">
<rect width="20" height="21" fill="white" transform="translate(10 8)"/>
</clipPath>
</defs>
</svg>
