<svg width="40" height="70" viewBox="0 0 40 70" fill="none" xmlns="http://www.w3.org/2000/svg">
<circle cx="20" cy="20" r="20" fill="#447604"/>
<path d="M20.4412 70L5 30H35L20.4412 70Z" fill="#447604"/>
<circle cx="20" cy="20" r="10" fill="#6CC551"/>
<path d="M27 16.942C27 14.2098 24.8275 12 22.1413 12C19.4551 12 17.2826 14.2098 17.2826 16.942C17.2826 19.3918 19.0317 21.4181 21.3292 21.8064V24.588H15.7764V22.47H16.4705V19.646C16.4705 19.2577 16.1582 18.94 15.7764 18.94H13.6941C13.3123 18.94 13 19.2577 13 19.646V22.47H13.6941V26H24.7997V24.588H22.7174V21.8487C25.1259 21.5593 27 19.4766 27 16.942ZM14.7353 18.234C15.3114 18.234 15.7764 17.761 15.7764 17.175C15.7764 16.589 15.3114 16.116 14.7353 16.116C14.1591 16.116 13.6941 16.589 13.6941 17.175C13.6941 17.761 14.1591 18.234 14.7353 18.234Z" fill="black"/>
</svg>
