<svg width="40" height="70" viewBox="0 0 40 70" fill="none" xmlns="http://www.w3.org/2000/svg">
<circle cx="20" cy="20" r="20" fill="#447604"/>
<path d="M20.4412 70L5 30H35L20.4412 70Z" fill="#447604"/>
<circle cx="20" cy="20" r="10" fill="#6CC551"/>
<path d="M24.6667 15.0952H23.3333C23.3333 13.3867 21.84 12 20 12C18.16 12 16.6667 13.3867 16.6667 15.0952H15.3333C14.6 15.0952 14.0067 15.6524 14.0067 16.3333L14 23.7619C14 24.4429 14.6 25 15.3333 25H24.6667C25.4 25 26 24.4429 26 23.7619V16.3333C26 15.6524 25.4 15.0952 24.6667 15.0952ZM20 13.2381C21.1067 13.2381 22 14.0676 22 15.0952H18C18 14.0676 18.8933 13.2381 20 13.2381ZM20 19.4286C18.16 19.4286 16.6667 18.0419 16.6667 16.3333H18C18 17.361 18.8933 18.1905 20 18.1905C21.1067 18.1905 22 17.361 22 16.3333H23.3333C23.3333 18.0419 21.84 19.4286 20 19.4286Z" fill="black"/>
</svg>
