<svg width="40" height="70" viewBox="0 0 40 70" fill="none" xmlns="http://www.w3.org/2000/svg">
<circle cx="20" cy="20" r="20" fill="#447604"/>
<path d="M20.4412 70L5 30H35L20.4412 70Z" fill="#447604"/>
<circle cx="20" cy="20" r="10" fill="#6CC551"/>
<path d="M14.8125 19.5C15.6754 19.5 16.375 18.8004 16.375 17.9375C16.375 17.0746 15.6754 16.375 14.8125 16.375C13.9496 16.375 13.25 17.0746 13.25 17.9375C13.25 18.8004 13.9496 19.5 14.8125 19.5Z" fill="black"/>
<path d="M17.625 17C18.4879 17 19.1875 16.3004 19.1875 15.4375C19.1875 14.5746 18.4879 13.875 17.625 13.875C16.7621 13.875 16.0625 14.5746 16.0625 15.4375C16.0625 16.3004 16.7621 17 17.625 17Z" fill="black"/>
<path d="M21.375 17C22.2379 17 22.9375 16.3004 22.9375 15.4375C22.9375 14.5746 22.2379 13.875 21.375 13.875C20.5121 13.875 19.8125 14.5746 19.8125 15.4375C19.8125 16.3004 20.5121 17 21.375 17Z" fill="black"/>
<path d="M24.1875 19.5C25.0504 19.5 25.75 18.8004 25.75 17.9375C25.75 17.0746 25.0504 16.375 24.1875 16.375C23.3246 16.375 22.625 17.0746 22.625 17.9375C22.625 18.8004 23.3246 19.5 24.1875 19.5Z" fill="black"/>
<path d="M22.8375 21.2875C22.2937 20.65 21.8375 20.1062 21.2875 19.4687C21 19.1312 20.6312 18.7938 20.1937 18.6438C20.125 18.6188 20.0562 18.6 19.9875 18.5875C19.8312 18.5625 19.6625 18.5625 19.5 18.5625C19.3375 18.5625 19.1687 18.5625 19.0062 18.5938C18.9375 18.6063 18.8687 18.625 18.8 18.65C18.3625 18.8 18 19.1375 17.7062 19.475C17.1625 20.1125 16.7062 20.6562 16.1562 21.2937C15.3375 22.1125 14.3312 23.0187 14.5187 24.2875C14.7 24.925 15.1562 25.5562 15.975 25.7375C16.4312 25.8312 17.8875 25.4625 19.4375 25.4625H19.55C21.1 25.4625 22.5562 25.825 23.0125 25.7375C23.8312 25.5562 24.2875 24.9187 24.4687 24.2875C24.6625 23.0125 23.6562 22.1062 22.8375 21.2875Z" fill="black"/>
</svg>
